<mxfile host="Electron" modified="2023-10-27T01:02:57.190Z" agent="Mozilla/5.0 (Macintosh; Intel Mac OS X 10_15_7) AppleWebKit/537.36 (KHTML, like Gecko) draw.io/22.0.2 Chrome/114.0.5735.289 Electron/25.8.4 Safari/537.36" etag="5zWnEPreUVfL2jpCcP-V" version="22.0.2" type="device">
  <diagram name="Page-1" id="DLsleFEsTTNoL87kP0La">
    <mxGraphModel dx="2070" dy="1463" grid="0" gridSize="10" guides="1" tooltips="1" connect="1" arrows="1" fold="1" page="1" pageScale="1" pageWidth="850" pageHeight="1100" math="0" shadow="0">
      <root>
        <mxCell id="0" />
        <mxCell id="1" parent="0" />
        <mxCell id="utLtorW2GP0ahkeXiwqq-58" style="edgeStyle=orthogonalEdgeStyle;rounded=0;orthogonalLoop=1;jettySize=auto;html=1;dashed=1;" edge="1" parent="1" source="utLtorW2GP0ahkeXiwqq-2" target="utLtorW2GP0ahkeXiwqq-48">
          <mxGeometry relative="1" as="geometry" />
        </mxCell>
        <mxCell id="utLtorW2GP0ahkeXiwqq-63" value="uses" style="edgeLabel;html=1;align=center;verticalAlign=middle;resizable=0;points=[];" vertex="1" connectable="0" parent="utLtorW2GP0ahkeXiwqq-58">
          <mxGeometry x="-0.2807" y="2" relative="1" as="geometry">
            <mxPoint as="offset" />
          </mxGeometry>
        </mxCell>
        <mxCell id="utLtorW2GP0ahkeXiwqq-64" style="edgeStyle=orthogonalEdgeStyle;rounded=0;orthogonalLoop=1;jettySize=auto;html=1;exitX=1;exitY=0.5;exitDx=0;exitDy=0;" edge="1" parent="1" source="utLtorW2GP0ahkeXiwqq-2" target="utLtorW2GP0ahkeXiwqq-60">
          <mxGeometry relative="1" as="geometry">
            <mxPoint x="578" y="887" as="sourcePoint" />
            <mxPoint x="746" y="887" as="targetPoint" />
            <Array as="points">
              <mxPoint x="561" y="899" />
            </Array>
          </mxGeometry>
        </mxCell>
        <mxCell id="utLtorW2GP0ahkeXiwqq-65" value="http response&lt;br&gt;(containing &lt;br&gt;html page)" style="edgeLabel;html=1;align=center;verticalAlign=middle;resizable=0;points=[];" vertex="1" connectable="0" parent="utLtorW2GP0ahkeXiwqq-64">
          <mxGeometry x="-0.1721" relative="1" as="geometry">
            <mxPoint x="11" y="-4" as="offset" />
          </mxGeometry>
        </mxCell>
        <mxCell id="utLtorW2GP0ahkeXiwqq-2" value="View" style="rounded=0;whiteSpace=wrap;html=1;fillColor=#008a00;fontColor=#ffffff;strokeColor=#005700;" vertex="1" parent="1">
          <mxGeometry x="441" y="865" width="120" height="60" as="geometry" />
        </mxCell>
        <mxCell id="utLtorW2GP0ahkeXiwqq-22" style="edgeStyle=orthogonalEdgeStyle;rounded=0;orthogonalLoop=1;jettySize=auto;html=1;entryX=0;entryY=0.5;entryDx=0;entryDy=0;startArrow=classic;startFill=1;" edge="1" parent="1" source="utLtorW2GP0ahkeXiwqq-15" target="utLtorW2GP0ahkeXiwqq-20">
          <mxGeometry relative="1" as="geometry" />
        </mxCell>
        <mxCell id="utLtorW2GP0ahkeXiwqq-23" value="HTTP Messages" style="edgeLabel;html=1;align=center;verticalAlign=middle;resizable=0;points=[];" vertex="1" connectable="0" parent="utLtorW2GP0ahkeXiwqq-22">
          <mxGeometry x="-0.0375" y="-3" relative="1" as="geometry">
            <mxPoint as="offset" />
          </mxGeometry>
        </mxCell>
        <mxCell id="utLtorW2GP0ahkeXiwqq-15" value="Client" style="rounded=0;whiteSpace=wrap;html=1;fillColor=#0050ef;fontColor=#ffffff;strokeColor=#001DBC;" vertex="1" parent="1">
          <mxGeometry x="433" y="353" width="120" height="60" as="geometry" />
        </mxCell>
        <mxCell id="utLtorW2GP0ahkeXiwqq-20" value="App:&lt;br&gt;SongBuddy" style="rounded=0;whiteSpace=wrap;html=1;fillColor=#0050ef;fontColor=#ffffff;strokeColor=#001DBC;" vertex="1" parent="1">
          <mxGeometry x="686" y="353" width="120" height="60" as="geometry" />
        </mxCell>
        <mxCell id="utLtorW2GP0ahkeXiwqq-21" value="&lt;font style=&quot;font-size: 12px;&quot;&gt;Client - what the user is using to access your webapp. &lt;br&gt;&lt;span style=&quot;white-space: pre;&quot;&gt;&amp;nbsp;&amp;nbsp;&amp;nbsp;&amp;nbsp;&lt;/span&gt;e.g. Google Chrome&lt;br&gt;&lt;br&gt;App - the software that makes up your website. (the &quot;brain&quot;)&lt;br&gt;&lt;br&gt;HTTP - how clients and apps talk to each other&lt;br&gt;&lt;br&gt;Two types of HTTP messages:&lt;br style=&quot;&quot;&gt;&lt;/font&gt;&lt;blockquote style=&quot;border: none; margin: 0px 0px 0px 40px; padding: 0px;&quot;&gt;&lt;font style=&quot;font-size: 12px;&quot;&gt;1. HTTP Request - client to app&lt;br&gt;2. HTTP Response - app to client&lt;/font&gt;&lt;/blockquote&gt;&lt;font style=&quot;font-size: 12px;&quot;&gt;&lt;br style=&quot;&quot;&gt;&lt;i&gt;Apps cannot speak unless spoken to.&lt;/i&gt;&lt;/font&gt;" style="text;html=1;strokeColor=none;fillColor=none;align=left;verticalAlign=middle;whiteSpace=wrap;rounded=0;" vertex="1" parent="1">
          <mxGeometry x="44" y="355" width="334" height="200" as="geometry" />
        </mxCell>
        <mxCell id="utLtorW2GP0ahkeXiwqq-32" value="" style="edgeStyle=orthogonalEdgeStyle;rounded=0;orthogonalLoop=1;jettySize=auto;html=1;" edge="1" parent="1" source="utLtorW2GP0ahkeXiwqq-25" target="utLtorW2GP0ahkeXiwqq-15">
          <mxGeometry relative="1" as="geometry" />
        </mxCell>
        <mxCell id="utLtorW2GP0ahkeXiwqq-33" value="URL" style="edgeLabel;html=1;align=center;verticalAlign=middle;resizable=0;points=[];" vertex="1" connectable="0" parent="utLtorW2GP0ahkeXiwqq-32">
          <mxGeometry x="-0.0947" y="-1" relative="1" as="geometry">
            <mxPoint as="offset" />
          </mxGeometry>
        </mxCell>
        <mxCell id="utLtorW2GP0ahkeXiwqq-25" value="User" style="shape=umlActor;verticalLabelPosition=bottom;verticalAlign=top;html=1;outlineConnect=0;" vertex="1" parent="1">
          <mxGeometry x="373" y="419" width="30" height="60" as="geometry" />
        </mxCell>
        <mxCell id="utLtorW2GP0ahkeXiwqq-27" value="URL has 3 parts:&lt;br&gt;&lt;br&gt;1. protocol - what protocol to use&lt;br&gt;&lt;u&gt;&lt;span style=&quot;white-space: pre;&quot;&gt;&#x9;&lt;/span&gt;https://&lt;br&gt;&lt;/u&gt;&lt;br&gt;2. domain name - the address of the website&amp;nbsp;&lt;br&gt;&lt;span style=&quot;white-space: pre;&quot;&gt;&#x9;&lt;/span&gt;&lt;u&gt;www.songbuddy.com&lt;br&gt;&lt;/u&gt;&lt;br&gt;3. path - what page on the website&lt;br&gt;&lt;span style=&quot;white-space: pre;&quot;&gt;&#x9;&lt;/span&gt;&lt;u&gt;/page/&lt;/u&gt;&lt;br&gt;&lt;br&gt;When you type &lt;u&gt;https://www.songbuddy.com/page/&lt;/u&gt;&amp;nbsp;into a browser, &lt;br&gt;you are telling it: &quot;Use this protocol to tell the website at this domain to give me this page&quot;" style="text;html=1;strokeColor=none;fillColor=none;align=left;verticalAlign=middle;whiteSpace=wrap;rounded=0;" vertex="1" parent="1">
          <mxGeometry x="44" y="68" width="356" height="229" as="geometry" />
        </mxCell>
        <mxCell id="utLtorW2GP0ahkeXiwqq-34" value="" style="edgeStyle=orthogonalEdgeStyle;rounded=0;orthogonalLoop=1;jettySize=auto;html=1;" edge="1" source="utLtorW2GP0ahkeXiwqq-36" target="utLtorW2GP0ahkeXiwqq-37" parent="1">
          <mxGeometry relative="1" as="geometry" />
        </mxCell>
        <mxCell id="utLtorW2GP0ahkeXiwqq-35" value="URL" style="edgeLabel;html=1;align=center;verticalAlign=middle;resizable=0;points=[];" vertex="1" connectable="0" parent="utLtorW2GP0ahkeXiwqq-34">
          <mxGeometry x="-0.0947" y="-1" relative="1" as="geometry">
            <mxPoint as="offset" />
          </mxGeometry>
        </mxCell>
        <mxCell id="utLtorW2GP0ahkeXiwqq-36" value="User" style="shape=umlActor;verticalLabelPosition=bottom;verticalAlign=top;html=1;outlineConnect=0;" vertex="1" parent="1">
          <mxGeometry x="422" y="130" width="30" height="60" as="geometry" />
        </mxCell>
        <mxCell id="utLtorW2GP0ahkeXiwqq-37" value="Client:&lt;br&gt;Google Chrome" style="rounded=0;whiteSpace=wrap;html=1;fillColor=#0050ef;fontColor=#ffffff;strokeColor=#001DBC;" vertex="1" parent="1">
          <mxGeometry x="549" y="130" width="120" height="60" as="geometry" />
        </mxCell>
        <mxCell id="utLtorW2GP0ahkeXiwqq-39" value="URLs" style="text;html=1;strokeColor=none;fillColor=none;align=center;verticalAlign=middle;whiteSpace=wrap;rounded=0;fontSize=24;fontStyle=5" vertex="1" parent="1">
          <mxGeometry x="48" y="35" width="60" height="30" as="geometry" />
        </mxCell>
        <mxCell id="utLtorW2GP0ahkeXiwqq-41" value="HTTP" style="text;html=1;strokeColor=none;fillColor=none;align=center;verticalAlign=middle;whiteSpace=wrap;rounded=0;fontSize=24;fontStyle=5" vertex="1" parent="1">
          <mxGeometry x="44" y="314" width="60" height="30" as="geometry" />
        </mxCell>
        <mxCell id="utLtorW2GP0ahkeXiwqq-42" value="Views" style="text;html=1;strokeColor=none;fillColor=none;align=left;verticalAlign=middle;whiteSpace=wrap;rounded=0;fontSize=24;fontStyle=5" vertex="1" parent="1">
          <mxGeometry x="44" y="618" width="234" height="30" as="geometry" />
        </mxCell>
        <mxCell id="utLtorW2GP0ahkeXiwqq-43" value="When client sends HTTP request, it includes the URL in it.&amp;nbsp;&lt;br&gt;&lt;br&gt;Django searches for that URL in&amp;nbsp;&lt;i&gt;url.py &lt;/i&gt;files,&lt;span style=&quot;background-color: initial;&quot;&gt;&amp;nbsp;where you define what URLs to listen for and what to do for each URL.&lt;/span&gt;&lt;br&gt;&lt;br&gt;What to do for each URL is defined in a &lt;b&gt;&lt;u&gt;view.&lt;/u&gt;&lt;/b&gt;&lt;br&gt;&lt;br&gt;&lt;u style=&quot;font-weight: bold;&quot;&gt;View&lt;/u&gt;&lt;b&gt; - django functions that take HTTP requests and return HTTP responses.&lt;/b&gt;&lt;br&gt;&lt;br&gt;&lt;i&gt;Views are necessary because requests may also contain parameters. e.g. a word that you want to get rhymes for.&lt;/i&gt;" style="text;html=1;strokeColor=none;fillColor=none;align=left;verticalAlign=middle;whiteSpace=wrap;rounded=0;" vertex="1" parent="1">
          <mxGeometry x="44" y="663" width="318" height="193" as="geometry" />
        </mxCell>
        <mxCell id="utLtorW2GP0ahkeXiwqq-46" value="Template - &quot;fake&quot; html pages with placeholders for content.&lt;br&gt;&lt;br&gt;Views takes templates, add content to it then generate real html pages which get returned as an HTTP response." style="text;html=1;strokeColor=none;fillColor=none;align=left;verticalAlign=middle;whiteSpace=wrap;rounded=0;" vertex="1" parent="1">
          <mxGeometry x="46" y="914" width="318" height="93.5" as="geometry" />
        </mxCell>
        <mxCell id="utLtorW2GP0ahkeXiwqq-47" value="Templates" style="text;html=1;strokeColor=none;fillColor=none;align=left;verticalAlign=middle;whiteSpace=wrap;rounded=0;fontSize=24;fontStyle=5" vertex="1" parent="1">
          <mxGeometry x="42" y="880" width="234" height="30" as="geometry" />
        </mxCell>
        <mxCell id="utLtorW2GP0ahkeXiwqq-48" value="Template" style="rounded=0;whiteSpace=wrap;html=1;" vertex="1" parent="1">
          <mxGeometry x="491" y="956" width="90" height="40" as="geometry" />
        </mxCell>
        <mxCell id="utLtorW2GP0ahkeXiwqq-51" style="edgeStyle=orthogonalEdgeStyle;rounded=0;orthogonalLoop=1;jettySize=auto;html=1;" edge="1" parent="1" source="utLtorW2GP0ahkeXiwqq-49" target="utLtorW2GP0ahkeXiwqq-50">
          <mxGeometry relative="1" as="geometry" />
        </mxCell>
        <mxCell id="utLtorW2GP0ahkeXiwqq-52" value="search for &lt;br&gt;matching views" style="edgeLabel;html=1;align=center;verticalAlign=middle;resizable=0;points=[];" vertex="1" connectable="0" parent="utLtorW2GP0ahkeXiwqq-51">
          <mxGeometry x="0.0063" y="-2" relative="1" as="geometry">
            <mxPoint as="offset" />
          </mxGeometry>
        </mxCell>
        <mxCell id="utLtorW2GP0ahkeXiwqq-49" value="App:&lt;br&gt;SongBuddy" style="rounded=0;whiteSpace=wrap;html=1;fillColor=#0050ef;fontColor=#ffffff;strokeColor=#001DBC;" vertex="1" parent="1">
          <mxGeometry x="439" y="648" width="120" height="60" as="geometry" />
        </mxCell>
        <mxCell id="utLtorW2GP0ahkeXiwqq-61" style="edgeStyle=orthogonalEdgeStyle;rounded=0;orthogonalLoop=1;jettySize=auto;html=1;" edge="1" parent="1" source="utLtorW2GP0ahkeXiwqq-50" target="utLtorW2GP0ahkeXiwqq-2">
          <mxGeometry relative="1" as="geometry" />
        </mxCell>
        <mxCell id="utLtorW2GP0ahkeXiwqq-62" value="pass request to" style="edgeLabel;html=1;align=center;verticalAlign=middle;resizable=0;points=[];" vertex="1" connectable="0" parent="utLtorW2GP0ahkeXiwqq-61">
          <mxGeometry x="-0.1043" y="-1" relative="1" as="geometry">
            <mxPoint as="offset" />
          </mxGeometry>
        </mxCell>
        <mxCell id="utLtorW2GP0ahkeXiwqq-50" value="urls.py" style="rounded=0;whiteSpace=wrap;html=1;" vertex="1" parent="1">
          <mxGeometry x="441" y="754" width="120" height="60" as="geometry" />
        </mxCell>
        <mxCell id="utLtorW2GP0ahkeXiwqq-60" value="Client:&lt;br&gt;Google Chrome" style="rounded=0;whiteSpace=wrap;html=1;fillColor=#0050ef;fontColor=#ffffff;strokeColor=#001DBC;" vertex="1" parent="1">
          <mxGeometry x="703" y="865" width="120" height="60" as="geometry" />
        </mxCell>
      </root>
    </mxGraphModel>
  </diagram>
</mxfile>
